<?xml version="1.0" encoding="utf-8"?>
<!-- Generator: Adobe Illustrator 24.3.0, SVG Export Plug-In . SVG Version: 6.00 Build 0)  -->
<svg version="1.1" id="Layer_1" xmlns="http://www.w3.org/2000/svg" xmlns:xlink="http://www.w3.org/1999/xlink" x="0px" y="0px"
	 viewBox="0 0 1832.79 1644.62" style="enable-background:new 0 0 1832.79 1644.62;" xml:space="preserve">
<g>
	<g>
		<path style="fill:#0F1C2E;" d="M1050.57,1121.78l407.74-948.15v1092.51c0,0,108.84,14.75,184.93,75.23c0,0,0-984.36,0-1132.63
			c0-148.27,66.74-175.58,168.19-175.58V0h-388.23l-433.1,1039.84L1050.57,1121.78z"/>
		<path style="fill:#0F1C2E;" d="M741.46,760.38c166.56-42.93,289.58-194.16,289.58-374.08c0-106.65-43.27-203.28-113.13-273.15
			C848.04,43.2,751.49,0.02,644.75,0.02h-285.8H258.47H5.84v33.17c101.48,0,168.23,27.26,168.23,175.53s0,1117.99,0,1117.99
			c58.71-62.19,184.89-118,184.89-118V808.65h219.49c0,0,233.14,362.87,402.86,577.47c169.73,214.6,324.83,211.67,484.8,211.67
			C1196.75,1480.29,798.44,851.92,741.46,760.38z M503.87,727.27H358.95V45.33h144.91c188.01,0,340.96,152.95,340.96,340.96
			S691.88,727.27,503.87,727.27z"/>
		<path style="fill:#0F1C2E;" d="M499.43,1198.84c0,0-296.54,140.47-499.43,280.93c68.28,3.9,68.28,3.9,68.28,3.9
			s343.36-218.5,427.25-218.5c62.43,0,373.6,137.54,603.81,379.45C1026.18,1518.79,723.79,1267.12,499.43,1198.84z"/>
		<path style="fill:#0F1C2E;" d="M496.51,1294.43c0,0-198.75,71.82-369.45,185.95l30-0.37c0,0,283.13-133.15,343.85-138.64
			c79.74,20.12,289.53,78.89,538.27,303.24c7.93,0,11.71,0,11.71,0S830.11,1384.18,496.51,1294.43z"/>
		<path style="fill:#0F1C2E;" d="M493.58,1368.08c0,0-189.73,62.92-267.76,115.1l20.12,0.49c0,0,183.26-75.35,249.11-75.35
			c65.84,0,321.17,79.74,479.19,236.3c9.33,0,9.33,0,9.33,0S784.33,1421.72,493.58,1368.08z"/>
		<path style="fill:#0F1C2E;" d="M354.09,1475.87c0,0,105.41-13.11,150.46-6.34c245.08,36.82,397.99,170.7,397.99,170.7s0,0,11.71,0
			c-169.73-152.9-367.99-199.72-413.35-203.38S354.09,1475.87,354.09,1475.87z"/>
		<path style="fill:#0F1C2E;" d="M1730.74,1432.37c-36.85-17.72-72.45-38-108.79-56.8c-66.77-34.55-136.14-61.23-211.49-70.2
			c-25.69-3.06-50.92-5.67-78.51,12.99c8.12,2.15,11.82,3.87,15.58,4.02c76.15,3.14,146.57,27.45,214.4,59.76
			c38.76,18.46,76.14,39.85,113.95,60.27c17.1,9.23,33.62,19.53,50.62,28.94c12.66,7.01,84.82,10.47,106.29,4.72
			c-5.2-2.55-8.41-4.34-11.78-5.74C1790.89,1457.75,1760.12,1446.5,1730.74,1432.37z"/>
		<path style="fill:#0F1C2E;" d="M1553.91,1403.66c-71.12-36.36-146.72-56.85-226.85-59.52c-9.48-0.32-18.62,0.08-30.56,8.52
			c14.67,1.7,24.75,2.58,34.73,4.09c28.3,4.26,56.77,7.72,84.79,13.39c57.8,11.7,110.19,37.66,162.24,64.17
			c23.71,12.08,47.05,24.86,70.82,36.81c8.6,4.32,17.64,9,31.88,5.85c-5.65-4.85-8.17-7.87-11.38-9.65
			C1631.12,1445.92,1593.08,1423.68,1553.91,1403.66z"/>
		<path style="fill:#0F1C2E;" d="M1272.35,1377.78c-0.25,2.1-0.5,4.19-0.75,6.28c12.01,1.55,23.97,3.6,36.02,4.55
			c70,5.53,136.75,23.18,200.09,53.45c19.35,9.25,38.24,19.47,57.42,29.09c9.45,4.74,18.94,9.84,34.93,6.52
			C1496.14,1415.03,1392.13,1369.93,1272.35,1377.78z"/>
		<path style="fill:#0F1C2E;" d="M1284.25,1412.94c23.99,7.18,49.01,10.19,73.23,16.34c25.69,6.52,50.68,15.86,75.88,24.25
			c23.47,7.81,44.76,22.33,70.56,22.82C1435.61,1438.25,1365.49,1406.22,1284.25,1412.94z"/>
		<path style="fill:#0F1C2E;" d="M1333.98,1445.54c30.2,21.92,51.29,28.66,70.81,23.99
			C1381.19,1461.53,1357.59,1453.53,1333.98,1445.54z"/>
	</g>
</g>
</svg>
