<?xml version="1.0" encoding="utf-8"?>
<!-- Generator: Adobe Illustrator 24.3.0, SVG Export Plug-In . SVG Version: 6.00 Build 0)  -->
<svg version="1.1" id="Layer_1" xmlns="http://www.w3.org/2000/svg" xmlns:xlink="http://www.w3.org/1999/xlink" x="0px" y="0px"
	 viewBox="0 0 3468.75 727.75" style="enable-background:new 0 0 3468.75 727.75;" xml:space="preserve">
<g>
	<g>
		<g>
			<g>
				<g>
					<path style="fill:#FFFFFF;" d="M1931.5,344.56c9.5,6.42,19.98,11.5,31.18,14.99c11.2,3.48,23.11,5.36,35.39,5.35
						c16.38,0,32.09-3.33,46.34-9.36c21.39-9.05,39.52-24.12,52.36-43.11c6.42-9.5,11.5-19.98,14.99-31.18
						c3.48-11.2,5.36-23.11,5.35-35.39c0-16.38-3.33-32.09-9.36-46.34c-9.05-21.39-24.12-39.52-43.11-52.36
						c-9.5-6.42-19.98-11.5-31.18-14.99c-11.2-3.48-23.11-5.36-35.39-5.35c-16.38,0-32.09,3.33-46.34,9.36
						c-21.39,9.05-39.52,24.12-52.36,43.11c-6.42,9.5-11.5,19.98-14.99,31.18c-3.48,11.2-5.36,23.11-5.35,35.39
						c0,16.38,3.33,32.09,9.36,46.34C1897.44,313.59,1912.51,331.73,1931.5,344.56z M1924.22,214.67
						c6.07-14.36,16.26-26.63,29.06-35.28c6.4-4.32,13.44-7.74,20.96-10.08c7.52-2.34,15.5-3.6,23.84-3.6
						c11.12,0,21.61,2.24,31.19,6.29c14.36,6.07,26.63,16.26,35.28,29.06c4.32,6.4,7.74,13.44,10.08,20.96
						c2.34,7.51,3.6,15.5,3.6,23.84c0,11.12-2.24,21.61-6.29,31.19c-6.07,14.36-16.26,26.63-29.06,35.28
						c-6.4,4.32-13.44,7.74-20.96,10.08c-7.51,2.34-15.5,3.6-23.84,3.6c-11.12,0-21.61-2.24-31.19-6.29
						c-14.36-6.07-26.63-16.26-35.28-29.06c-4.32-6.4-7.74-13.44-10.08-20.96c-2.34-7.51-3.6-15.5-3.6-23.84
						C1917.93,234.74,1920.17,224.25,1924.22,214.67z"/>
				</g>
			</g>
			<g>
				<path style="fill:#FFFFFF;" d="M2201.79,233.93c0.01-12.47,2.45-22.86,6.34-31.71c2.93-6.63,6.71-12.4,11.05-17.38
					c6.49-7.46,14.31-13.11,22.04-16.79c3.86-1.84,7.69-3.19,11.24-4.06c3.55-0.87,6.81-1.25,9.5-1.25
					c7.03-0.01,14.5,0.49,21.38,2.09c5.17,1.19,9.96,2.97,14.23,5.5c3.21,1.9,6.15,4.2,8.89,7.18c2.06,2.24,4.01,4.86,5.83,8.06
					c2.73,4.8,5.18,10.91,6.96,18.86c1.78,7.93,2.88,17.68,2.88,29.51c0,62.68,0,99.76,0,113.88c0,3.64,2.95,6.58,6.59,6.58h25.71
					c3.64,0,6.59-2.94,6.59-6.59c0-14.12,0-51.2,0-113.88c0-11.23-0.82-21.45-2.4-30.78c-1.39-8.16-3.36-15.65-5.9-22.5
					c-4.43-11.98-10.65-22.03-18.1-29.98c-5.58-5.96-11.8-10.72-18.2-14.38c-9.62-5.51-19.57-8.58-28.87-10.31
					c-9.32-1.73-18.06-2.14-25.6-2.14c-5.51,0-11.07,0.66-16.65,1.87c-9.75,2.14-19.58,6.01-29.02,11.59
					c-4.98,2.94-9.84,6.37-14.49,10.28v-9.63c0-3.64-2.95-6.59-6.59-6.59h-25.71c-3.64,0-6.59,2.95-6.59,6.59V347.8
					c0,3.64,2.95,6.59,6.59,6.59h25.71c3.64,0,6.59-2.95,6.59-6.59V233.93z"/>
			</g>
			<g>
				<path style="fill:#FFFFFF;" d="M3140.12,233.93c0-9.12,1.09-17.21,2.97-24.37c2.82-10.74,7.37-19.41,12.92-26.42
					c5.55-7,12.15-12.32,19.11-16.04c4.01-2.14,8.32-3.17,12.7-3.18c4.05,0,8.12,0.9,11.91,2.7c2.44,1.16,5.36,0.32,6.9-1.9
					l15.89-23c1.86-2.69,1.03-6.41-1.81-8.01c-10.13-5.74-21.48-8.7-32.89-8.69c-10.6,0-21.3,2.56-31.03,7.77
					c-5.8,3.1-11.4,6.84-16.66,11.23v-7.09c0-3.08-2.5-5.57-5.57-5.57h-27.75c-3.08,0-5.57,2.5-5.57,5.57v211.88
					c0,3.08,2.5,5.57,5.57,5.57h27.75c3.08,0,5.57-2.5,5.57-5.57V233.93z"/>
			</g>
			<g>
				<path style="fill:#FFFFFF;" d="M2494.61,354.76l62.44-145.68c1.5-3.49,6.44-3.49,7.94,0l62.44,145.68
					c0.68,1.59,2.24,2.62,3.97,2.62h4.91c1.74,0,3.3-1.04,3.98-2.64l91.09-215.59c1.2-2.85-0.89-6-3.98-6h-33.18
					c-1.74,0-3.3,1.04-3.98,2.64l-52.64,124.6c-1.48,3.51-6.45,3.52-7.95,0.02l-53.43-124.64c-0.68-1.59-2.24-2.62-3.97-2.62h-22.47
					c-1.73,0-3.29,1.03-3.97,2.62l-53.43,124.64c-1.5,3.5-6.47,3.49-7.95-0.02l-52.64-124.6c-0.68-1.6-2.24-2.64-3.98-2.64h-33.18
					c-3.09,0-5.18,3.15-3.98,6l91.09,215.59c0.68,1.6,2.24,2.64,3.98,2.64h4.91C2492.37,357.38,2493.93,356.35,2494.61,354.76z"/>
			</g>
			<g>
				<g>
					<path style="fill:#FFFFFF;" d="M3429.85,55.43v102.41c-4.25-3.87-8.79-7.44-13.57-10.68c-9.5-6.42-19.98-11.5-31.18-14.99
						c-11.2-3.48-23.11-5.36-35.39-5.35c-16.38,0-32.09,3.33-46.34,9.36c-21.39,9.05-39.52,24.12-52.36,43.11
						c-6.42,9.5-11.5,19.98-14.99,31.18c-3.48,11.2-5.36,23.11-5.35,35.39c0,16.38,3.33,32.09,9.36,46.34
						c9.05,21.39,24.12,39.52,43.11,52.36c9.5,6.42,19.98,11.5,31.18,14.99c11.2,3.48,23.11,5.36,35.39,5.35
						c16.38,0,32.09-3.33,46.34-9.36c12.52-5.3,23.92-12.67,33.8-21.68v13.58c0,3.84,3.11,6.96,6.96,6.96h24.98
						c3.84,0,6.96-3.12,6.96-6.96V55.43c0-3.84-3.12-6.96-6.96-6.96h-24.98C3432.96,48.47,3429.85,51.58,3429.85,55.43z
						 M3423.56,277.05c-6.07,14.36-16.26,26.63-29.06,35.28c-6.4,4.32-13.44,7.74-20.96,10.08c-7.52,2.34-15.5,3.6-23.84,3.6
						c-11.12,0-21.61-2.24-31.19-6.29c-14.36-6.07-26.63-16.26-35.28-29.06c-4.32-6.4-7.74-13.44-10.08-20.96
						c-2.34-7.51-3.6-15.5-3.6-23.84c0-11.12,2.24-21.61,6.29-31.19c6.07-14.36,16.26-26.63,29.06-35.28
						c6.4-4.32,13.44-7.74,20.96-10.08c7.51-2.34,15.5-3.6,23.84-3.6c11.12,0,21.61,2.24,31.19,6.29
						c14.36,6.07,26.63,16.26,35.28,29.06c4.32,6.4,7.74,13.44,10.08,20.96c2.34,7.51,3.6,15.5,3.6,23.84
						C3429.84,256.98,3427.6,267.47,3423.56,277.05z"/>
				</g>
			</g>
			<g>
				<path style="fill:#FFFFFF;" d="M3456.63,411.38L3456.63,411.38l-445.71,0V259.39h26.13c4.57,0,8.69-2.75,10.43-6.97
					s0.78-9.08-2.45-12.31l-139.4-139.4c-4.41-4.41-11.56-4.41-15.97,0l-139.4,139.4c-3.23,3.23-4.2,8.09-2.45,12.31
					c1.75,4.22,5.87,6.97,10.43,6.97h26.13v151.99h-906.48c-6.24,0-11.29,5.06-11.29,11.29c0,6.24,5.06,11.29,11.29,11.29l917.78,0
					c2.97,0,5.88-1.2,7.99-3.31c2.1-2.1,3.31-5.01,3.31-7.99V248.1c0-2.97-1.2-5.88-3.31-7.99c-2.1-2.1-5.01-3.31-7.99-3.31h-10.16
					l112.13-112.13l112.13,112.13h-10.16c-2.97,0-5.88,1.2-7.99,3.31c-2.1,2.1-3.31,5.01-3.31,7.99v174.58
					c0,2.97,1.2,5.88,3.31,7.99c2.1,2.1,5.01,3.31,7.99,3.31h457c6.24,0,11.29-5.06,11.29-11.29
					C3467.93,416.44,3462.87,411.38,3456.63,411.38z"/>
			</g>
			<g>
				<path style="fill:#FFFFFF;" d="M2179.06,576.55c3.46,0,6.27-2.81,6.27-6.27c0-3.47-2.81-6.27-6.27-6.27h-34.87v-24.72h34.87
					c3.46,0,6.27-2.81,6.27-6.27c0-3.47-2.81-6.27-6.27-6.27v0h-41.15c-1.65,0-3.27,0.67-4.44,1.84s-1.84,2.78-1.84,4.44v74.54
					c0,1.65,0.67,3.27,1.84,4.44c1.17,1.17,2.78,1.84,4.44,1.84h41.15c3.46,0,6.27-2.81,6.27-6.27c0-3.47-2.81-6.27-6.27-6.27
					l-34.87,0v-24.72H2179.06z"/>
			</g>
			<g>
				<path style="fill:#FFFFFF;" d="M2684.08,576.55c3.47,0,6.27-2.81,6.27-6.27c0-3.47-2.81-6.27-6.27-6.27h-31.11v-24.72h31.11
					c3.47,0,6.27-2.81,6.27-6.27c0-3.47-2.81-6.27-6.27-6.27v0h-37.38c-1.65,0-3.27,0.67-4.44,1.84s-1.84,2.78-1.84,4.44v74.54
					c0,1.65,0.67,3.27,1.84,4.44c1.17,1.17,2.78,1.84,4.44,1.84h37.38c3.47,0,6.27-2.81,6.27-6.27c0-3.47-2.81-6.27-6.27-6.27
					l-31.11,0v-24.72H2684.08z"/>
			</g>
			<g>
				<path style="fill:#FFFFFF;" d="M3345.13,576.55c3.47,0,6.27-2.81,6.27-6.27c0-3.47-2.81-6.27-6.27-6.27h-31.11v-24.72h31.11
					c3.47,0,6.27-2.81,6.27-6.27c0-3.47-2.81-6.27-6.27-6.27v0h-37.38c-1.65,0-3.27,0.67-4.44,1.84c-1.17,1.17-1.84,2.78-1.84,4.44
					v74.54c0,1.65,0.67,3.27,1.84,4.44c1.17,1.17,2.78,1.84,4.44,1.84h37.38c3.47,0,6.27-2.81,6.27-6.27c0-3.47-2.81-6.27-6.27-6.27
					l-31.11,0v-24.72H3345.13z"/>
			</g>
			<g>
				<g>
					<path style="fill:#FFFFFF;" d="M2047.86,569.56c4.31-4.3,6.99-10.31,6.99-16.88c0-6.57-2.68-12.58-6.99-16.88
						c-4.3-4.31-10.31-6.99-16.88-6.99h-26.35c-1.65,0-3.27,0.67-4.44,1.84c-1.17,1.17-1.84,2.78-1.84,4.44v35.18v39.06
						c0,3.46,2.81,6.27,6.27,6.27c3.46,0,6.27-2.81,6.27-6.27v-30.79l31.6,36.95c2.25,2.63,6.21,2.94,8.85,0.69
						c2.63-2.25,2.94-6.21,0.69-8.85l-26.33-30.8h5.28C2037.55,576.55,2043.56,573.86,2047.86,569.56z M2010.9,564v-22.64l20.08,0
						c3.15,0,5.93,1.26,8,3.31c2.06,2.07,3.31,4.86,3.32,8c0,3.15-1.26,5.94-3.32,8c-2.07,2.06-4.86,3.31-8,3.31H2010.9z"/>
				</g>
			</g>
			<g>
				<g>
					<path style="fill:#FFFFFF;" d="M2343.34,608.69l-35.33-73c-1.05-2.16-3.25-3.54-5.65-3.54s-4.6,1.38-5.65,3.54l-35.33,73
						c-1.51,3.12-0.21,6.87,2.91,8.38c3.12,1.51,6.87,0.2,8.38-2.91l11.8-24.38h35.77l11.8,24.38c1.51,3.12,5.26,4.42,8.38,2.91
						C2343.54,615.56,2344.85,611.81,2343.34,608.69L2343.34,608.69z M2290.54,577.22l11.81-24.4l11.81,24.4H2290.54z"/>
				</g>
			</g>
			<g>
				<g>
					<path style="fill:#FFFFFF;" d="M3102.78,608.69l-35.33-73c-1.05-2.16-3.25-3.54-5.65-3.54s-4.6,1.38-5.65,3.54l-35.33,73
						c-1.51,3.12-0.21,6.87,2.91,8.38c3.12,1.51,6.87,0.2,8.38-2.91l11.8-24.38h35.77l11.8,24.38c1.51,3.12,5.26,4.42,8.38,2.91
						C3102.99,615.56,3104.29,611.81,3102.78,608.69L3102.78,608.69z M3049.99,577.22l11.81-24.4l11.81,24.4H3049.99z"/>
				</g>
			</g>
			<g>
				<path style="fill:#FFFFFF;" d="M2462.62,603.06l-29.51,0V533c0-3.47-2.81-6.27-6.27-6.27c-3.47,0-6.27,2.81-6.27,6.27h0v76.33
					c0,1.65,0.67,3.27,1.84,4.44c1.17,1.17,2.78,1.84,4.44,1.84h35.78c3.47,0,6.27-2.81,6.27-6.27
					C2468.9,605.87,2466.09,603.06,2462.62,603.06z"/>
			</g>
			<g>
				<path style="fill:#FFFFFF;" d="M2941.6,528.81h-40.48c-3.47,0-6.27,2.81-6.27,6.27c0,3.46,2.81,6.27,6.27,6.27h13.96v68.38
					c0,3.47,2.81,6.27,6.27,6.27s6.27-2.81,6.27-6.27v-68.38h13.96c3.47,0,6.27-2.81,6.27-6.27
					C2947.88,531.62,2945.07,528.81,2941.6,528.81z"/>
			</g>
			<g>
				<path style="fill:#FFFFFF;" d="M3216.22,528.81h-40.48c-3.47,0-6.27,2.81-6.27,6.27c0,3.46,2.81,6.27,6.27,6.27h13.96v68.38
					c0,3.47,2.81,6.27,6.27,6.27s6.27-2.81,6.27-6.27v-68.38h13.96c3.47,0,6.27-2.81,6.27-6.27
					C3222.49,531.62,3219.68,528.81,3216.22,528.81z"/>
			</g>
			<g>
				<path style="fill:#FFFFFF;" d="M2812.22,573.89l-23.94-21.98l0.01,0.01c-1.79-1.68-2.55-3.63-2.56-5.6
					c0.01-1.97,0.77-3.93,2.56-5.6c1.77-1.65,4.25-2.57,6.8-2.56c1.43,0,2.86,0.29,4.15,0.85c0.76,0.33,1.6,0.9,2.48,1.71l5.93,5.47
					c2.55,2.35,6.51,2.19,8.87-0.35c2.35-2.55,2.19-6.52-0.35-8.87l-5.93-5.47c-1.61-1.48-3.56-2.94-5.99-4
					c-2.93-1.27-6.05-1.89-9.15-1.89c-5.49,0-11.02,1.94-15.32,5.89c-4.31,3.96-6.61,9.4-6.6,14.82c-0.01,5.42,2.29,10.85,6.6,14.82
					l0.01,0.01l23.92,21.97c2.67,2.48,3.86,5.5,3.87,8.52c-0.01,3.03-1.21,6.04-3.87,8.52c-2.64,2.45-6.27,3.78-9.97,3.78
					c-2.08,0-4.16-0.42-6.05-1.24c-1.21-0.52-2.45-1.39-3.69-2.53l-7.63-7.04c-2.55-2.35-6.52-2.19-8.87,0.35
					c-2.35,2.55-2.19,6.52,0.35,8.87v0l7.62,7.04c1.96,1.81,4.32,3.56,7.2,4.82c3.53,1.54,7.31,2.28,11.06,2.28
					c6.65,0,13.32-2.35,18.49-7.1c5.19-4.77,7.92-11.26,7.91-17.74c0.01-6.48-2.72-12.97-7.91-17.74L2812.22,573.89z"/>
			</g>
		</g>
		<rect x="1776.01" style="fill:#FFFFFF;" width="5.53" height="700.17"/>
		<g>
			<path style="fill:#FFFFFF;" d="M1054.08,259.79c-59.71-23.23-120.95,17.12-120.42,79.7c0,3.67-0.39,7.39,0.06,11.01
				c3.12,24.91,12.61,46.66,33.97,61.16c50.19,34.08,120.99,8.62,134.86-52.24C1111.15,321.72,1099.25,277.36,1054.08,259.79z
				 M1070.79,381.8c-13.39,34.51-51.97,42.27-79.98,21.45c-7.29-5.42-13.96-13.06-18.07-21.13c-13.32-26.14-16.05-53.72-6.63-81.91
				c3.86-11.56,10.97-20.73,21.27-27.58c15.5-10.31,47.33-11.58,66.43,9c13.96,15.05,20.48,33.11,22.33,53.15
				c0.37,4.05,0.05,8.16,0.05,12.24C1076.82,358.98,1075.16,370.54,1070.79,381.8z"/>
			<path style="fill:#FFFFFF;" d="M1056.94,474.75c-36.18,13.19-57.24,44.85-57.12,84.27c-0.82,37.88,25.38,77.32,69.24,83.72
				c29.22,4.26,55.2-1.99,76.71-22.85c19.31-18.73,27.56-41.94,26.21-68.64C1168.39,480.21,1101.45,458.52,1056.94,474.75z
				 M1141.37,592.3c-4.93,18.86-15.49,33.54-35.24,38.75c-21.89,5.78-41.19,0.46-56.91-16.23c-14.41-15.31-20.22-34.25-21.9-54.59
				c-1.08-13.02-0.96-26.09,3.37-38.76c7.26-21.28,20.15-36.55,43.67-39.34c25.43-3.02,44.4,7.67,57.23,29.46
				c9.81,16.66,13.09,35,13.85,54.21C1144.13,574.64,1143.62,583.7,1141.37,592.3z"/>
			<polygon style="fill:#FFFFFF;" points="812.37,199.52 834.91,199.52 834.91,114.39 870.28,114.39 870.28,94.96 776.99,94.96 
				776.99,114.39 812.37,114.39 			"/>
			<polygon style="fill:#FFFFFF;" points="977.17,199.52 977.17,180.08 921.39,180.08 921.39,156.96 971.73,156.96 971.73,137.52 
				921.39,137.52 921.39,114.39 977.17,114.39 977.17,94.96 921.39,94.96 898.85,94.96 898.85,114.39 898.85,137.52 898.85,156.96 
				898.85,180.08 898.85,199.52 921.39,199.52 			"/>
			<path style="fill:#FFFFFF;" d="M1024.59,199.52l9.75-20.99h51.04l9.75,20.99h24.29l-47.42-102.05l1.17-2.51h-2.33h-21.96h-2.33
				l1.17,2.51l-47.42,102.05H1024.59z M1059.87,123.61l16.44,35.39h-32.89L1059.87,123.61z"/>
			<polygon style="fill:#FFFFFF;" points="1167.44,139.4 1196.01,187.37 1214.36,187.37 1242.93,139.4 1242.93,199.52 
				1265.67,199.52 1265.67,94.96 1242.93,94.96 1205.18,158.34 1167.44,94.96 1144.7,94.96 1144.7,199.52 1167.44,199.52 			"/>
			<path style="fill:#FFFFFF;" d="M418.62,519.41L581.09,141.6v435.33c0,0,43.37,5.88,73.69,29.98c0,0,0-392.24,0-451.32
				c0-59.08,26.59-69.96,67.02-69.96V72.42H567.1L394.52,486.76L418.62,519.41z"/>
			<path style="fill:#FFFFFF;" d="M295.45,375.4c66.37-17.11,115.39-77.37,115.39-149.06c0-42.5-17.24-81-45.08-108.84
				c-27.84-27.87-66.31-45.08-108.84-45.08H143.03h-40.04H2.33v13.22c40.44,0,67.03,10.86,67.03,69.94s0,445.49,0,445.49
				c23.39-24.78,73.67-47.02,73.67-47.02V394.64h87.46c0,0,92.9,144.59,160.53,230.11c67.63,85.51,129.43,84.35,193.18,84.35
				C476.87,662.27,318.16,411.88,295.45,375.4z M200.78,362.21h-57.74V90.48h57.74c74.92,0,135.86,60.95,135.86,135.86
				S275.69,362.21,200.78,362.21z"/>
			<path style="fill:#FFFFFF;" d="M199.01,550.12c0,0-118.16,55.97-199.01,111.94c27.21,1.55,27.21,1.55,27.21,1.55
				s136.82-87.07,170.25-87.07c24.88,0,148.87,54.81,240.6,151.2C408.9,677.61,288.41,577.33,199.01,550.12z"/>
			<path style="fill:#FFFFFF;" d="M197.84,588.21c0,0-79.2,28.62-147.22,74.09l11.95-0.15c0,0,112.82-53.06,137.01-55.24
				c31.78,8.02,115.37,31.44,214.49,120.83c3.16,0,4.66,0,4.66,0S330.78,623.97,197.84,588.21z"/>
			<path style="fill:#FFFFFF;" d="M196.68,617.56c0,0-75.6,25.07-106.7,45.87l8.02,0.19c0,0,73.03-30.03,99.26-30.03
				c26.24,0,127.98,31.78,190.94,94.16c3.72,0,3.72,0,3.72,0S312.53,638.93,196.68,617.56z"/>
			<path style="fill:#FFFFFF;" d="M141.09,660.51c0,0,42-5.22,59.96-2.53C298.71,672.65,359.64,726,359.64,726s0,0,4.66,0
				c-67.63-60.93-146.63-79.58-164.71-81.04S141.09,660.51,141.09,660.51z"/>
			<path style="fill:#FFFFFF;" d="M689.65,643.17c-14.68-7.06-28.87-15.14-43.35-22.63c-26.61-13.77-54.25-24.4-84.27-27.97
				c-10.24-1.22-20.29-2.26-31.29,5.18c3.24,0.86,4.71,1.54,6.21,1.6c30.34,1.25,58.4,10.94,85.43,23.81
				c15.44,7.36,30.34,15.88,45.4,24.02c6.81,3.68,13.4,7.78,20.17,11.53c5.05,2.79,33.8,4.17,42.36,1.88
				c-2.07-1.02-3.35-1.73-4.69-2.29C713.62,653.29,701.36,648.8,689.65,643.17z"/>
			<path style="fill:#FFFFFF;" d="M619.19,631.73c-28.34-14.49-58.47-22.65-90.39-23.72c-3.78-0.13-7.42,0.03-12.18,3.4
				c5.85,0.68,9.86,1.03,13.84,1.63c11.28,1.7,22.62,3.08,33.78,5.34c23.03,4.66,43.91,15.01,64.65,25.57
				c9.45,4.81,18.75,9.9,28.22,14.67c3.43,1.72,7.03,3.59,12.7,2.33c-2.25-1.93-3.26-3.13-4.53-3.85
				C649.95,648.57,634.8,639.71,619.19,631.73z"/>
			<path style="fill:#FFFFFF;" d="M507,621.42c-0.1,0.84-0.2,1.67-0.3,2.5c4.78,0.62,9.55,1.44,14.35,1.81
				c27.89,2.2,54.49,9.24,79.73,21.3c7.71,3.69,15.24,7.76,22.88,11.59c3.76,1.89,7.55,3.92,13.92,2.6
				C596.17,636.26,554.72,618.29,507,621.42z"/>
			<path style="fill:#FFFFFF;" d="M511.73,635.43c9.56,2.86,19.53,4.06,29.18,6.51c10.24,2.6,20.19,6.32,30.24,9.66
				c9.35,3.11,17.84,8.9,28.12,9.09C572.05,645.52,544.11,632.76,511.73,635.43z"/>
			<path style="fill:#FFFFFF;" d="M531.55,648.42c12.03,8.73,20.44,11.42,28.22,9.56C550.36,654.79,540.96,651.61,531.55,648.42z"/>
			<path style="fill:#FFFFFF;" d="M848.56,414.71h-7.16c-8.31,0-15.04-6.73-15.04-15.04v-50.9h20.99c0,0,40.62,72.1,58.69,72.1
				c18.07,0,35.57,0,35.57,0v-6.16h-0.83c-10.24,0-19.93-4.6-26.39-12.55c-14.18-17.42-38.73-48.3-46.22-62.02
				c6.96-1.97,13.2-5.66,18.19-10.65c7.6-7.6,12.31-18.11,12.3-29.7c-0.01-23.06-20.14-41.91-43.21-41.91h-6.15v-0.01h-70.35v6.16
				h7.82c7.54,0,13.65,6.11,13.65,13.65v121.98c0,8.31-6.73,15.04-15.04,15.04h-7.16v6.16h70.35V414.71z M826.36,267.14h17.82
				c19.1,0,34.58,15.51,34.58,34.61c0,9.55-3.86,18.19-10.14,24.47c-6.25,6.25-14.89,10.11-24.44,10.11h-17.82V267.14z"/>
			<path style="fill:#FFFFFF;" d="M1535.91,402.17c-14.18-17.42-38.73-48.3-46.22-62.02c6.96-1.97,13.2-5.66,18.19-10.65
				c7.6-7.6,12.31-18.11,12.3-29.7c-0.01-23.06-20.14-41.91-43.21-41.91h-6.15v-0.01h-70.35v6.16h7.82
				c7.54,0,13.65,6.11,13.65,13.65v121.98c0,8.31-6.73,15.04-15.04,15.04h-7.16v6.16h70.35v-6.16h-7.16
				c-8.31,0-15.04-6.73-15.04-15.04v-50.9h20.99c0,0,40.62,72.1,58.69,72.1c18.07,0,35.57,0,35.57,0v-6.16h-0.83
				C1552.05,414.71,1542.37,410.11,1535.91,402.17z M1465.7,336.33h-17.82v-69.19h17.82c19.11,0,34.58,15.51,34.58,34.61
				c0,9.55-3.86,18.19-10.14,24.47C1483.89,332.47,1475.25,336.33,1465.7,336.33z"/>
			<path style="fill:#FFFFFF;" d="M1249.58,376.38c0-12.27-4.97-23.39-13.05-31.47c-8.05-8.05-19.17-13.02-31.47-13.02h-0.84
				c17.09-2.81,31.02-16.58,32.31-34.26c0.84-11.47-3.51-21.99-10.92-29.4c-6.8-6.8-16.23-10.99-26.6-10.99h-54.45h-3.88h-21.19
				v7.31c11.71,0,21.19,9.49,21.19,21.19v46.71h0.01v67.23c0,8.31-6.73,15.04-15.04,15.04h-7.16v6.16h67.08v-0.01h19.5
				C1229.66,420.87,1249.58,400.94,1249.58,376.38z M1163.35,267.14h20.05c16.68,0,30.23,13.51,30.23,30.2
				c0,8.38-3.4,15.9-8.87,21.4c-5.46,5.46-13.02,8.83-21.36,8.83h-20.05V267.14z M1184.35,411.35h-15.33
				c-3.43-2.76-5.66-6.93-5.66-11.67v-62.95h21c20.61,0,37.29,16.72,37.29,37.33c0,10.3-4.15,19.63-10.93,26.37
				C1203.98,407.16,1194.66,411.35,1184.35,411.35z"/>
			<path style="fill:#FFFFFF;" d="M1260.14,264.04h7.82c7.54,0,13.65,6.11,13.65,13.65v121.98c0,8.31-6.73,15.04-15.04,15.04h-7.16
				v6.16h29.73h9.09h5.44h24.29h50.53l13.02-37.51h-11.08l-10.9,18.88c-1.9,3.29-5.62,5.35-9.66,5.35h-51.81
				c-1.44-2.31-2.31-5.01-2.31-7.92v-59.44h36.36c6.54,0,11.84,5.3,11.84,11.84v7.87h8.49v-48h-8.49v7.87
				c0,6.54-5.3,11.84-11.84,11.84h-36.36v-53.97c0-2.38,0.66-4.59,1.74-6.54h41.3c0.47,0,0.93,0.03,1.38,0.09
				c0.08,0,0.16,0.03,0.24,0.03c2.17,0.3,4.17,1.21,5.77,2.56c0.76,0.71,1.46,1.52,2.1,2.43c0.05,0.08,0.11,0.16,0.16,0.24
				l0.01-0.01c4.89,7.09,6.43,18.84,6.43,18.84h7.97l1.85-37.45h-7.29h-40.18h-29.01h-5.64h-3.45h-29.01V264.04z"/>
			<path style="fill:#FFFFFF;" d="M1646.38,257.88h-66.77h-41.25l1.85,37.45h7.97c0,0,1.53-11.75,6.43-18.84l0.01,0.01
				c0.05-0.08,0.11-0.16,0.16-0.24c0.64-0.9,1.34-1.72,2.1-2.43c1.6-1.36,3.6-2.26,5.77-2.56c0.08,0,0.16-0.03,0.24-0.03
				c0.46-0.05,0.92-0.09,1.38-0.09h34.97v128.52c0,8.31-6.73,15.04-15.04,15.04h-7.16v6.16h70.35v-6.16h-7.16
				c-8.12,0-14.69-6.44-14.99-14.49V271.16h36.5c0.47,0,0.93,0.03,1.38,0.09c0.08,0,0.16,0.03,0.24,0.03
				c2.17,0.3,4.17,1.21,5.77,2.56c0.76,0.71,1.46,1.52,2.1,2.43c0.05,0.08,0.11,0.16,0.16,0.24l0.01-0.01
				c4.89,7.09,6.43,18.84,6.43,18.84h7.97l1.85-37.45H1646.38z"/>
			<path style="fill:#FFFFFF;" d="M1488.88,478.21h7.16c8.12,0,14.69,6.44,14.99,14.49v81.66h0.06v43.4
				c0,7.49-5.49,13.65-12.65,14.8c-9.64-0.47-18.65-5.05-24.78-12.76c-14.18-17.84-38.73-49.46-46.22-63.52
				c6.97-2.02,13.2-5.8,18.19-10.9c7.6-7.78,12.31-18.54,12.3-30.41c-0.01-23.62-20.14-42.92-43.21-42.92h-6.15v-0.01h-70.35v6.31
				h7.82c7.54,0,13.65,6.26,13.65,13.98v124.91c0,7.72-5.56,14.05-12.79,15.17c-8.77-1.03-16.86-5.52-22.5-12.62
				c-14.18-17.84-38.73-49.46-46.22-63.52c6.97-2.02,13.2-5.8,18.19-10.9c7.6-7.78,12.31-18.54,12.3-30.41
				c-0.01-23.62-20.14-42.92-43.21-42.92h-6.15v-0.01h-70.35v6.31h7.82c7.54,0,13.65,6.26,13.65,13.98v124.91
				c0,8.51-6.73,15.4-15.04,15.4h-7.16v6.31h70.35v-6.31h-7.16c-8.31,0-15.04-6.9-15.04-15.4v-52.12h20.99
				c0,0,40.62,73.84,58.69,73.84c7.69,0,15.25,0,21.43,0c8.35,0,14.14,0,14.14,0h56.21v-6.31h-7.16c-8.31,0-15.04-6.9-15.04-15.4
				v-52.12h20.99c0,0,40.62,73.84,58.69,73.84c8.61,0,17.05,0,23.57,0c7.17,0,11.99,0,11.99,0h58.36v-6.16h-7.16
				c-8.12,0-14.69-6.44-14.99-14.49v-83.81h-0.06v-41.25c0-8.31,6.73-15.04,15.04-15.04h7.16v-6.16h-70.35V478.21z M1254.2,552.39
				h-17.82v-70.85h17.82c19.11,0,34.58,15.88,34.58,35.44c0,9.78-3.86,18.63-10.14,25.06
				C1272.38,548.43,1263.75,552.39,1254.2,552.39z M1403.45,552.39h-17.82v-70.85h17.82c19.11,0,34.58,15.88,34.58,35.44
				c0,9.78-3.86,18.63-10.14,25.06C1421.64,548.43,1413.01,552.39,1403.45,552.39z"/>
			<path style="fill:#FFFFFF;" d="M966.8,618.66V485.22h18.06v-12.63h-45.87l-51.72,125.79l-57.81-125.79h-45.87v12.63h18.03v133.44
				c0,7.95-6.28,14.39-14.07,14.39h-6.67v5.92h59.25v-5.92h-6.71c-7.79,0-14.07-6.44-14.07-14.39V503.21l61.34,134.88l61.86-134.88
				v115.45c0,7.95-6.31,14.39-14.07,14.39h-6.71v5.92h65.79v-5.92h-6.71C973.11,633.06,966.8,626.61,966.8,618.66z"/>
			<path style="fill:#FFFFFF;" d="M1652.62,560.01c-6.5-4.93-13.71-8.98-20.67-13.3c-6.32-3.92-13.05-7.26-19.03-11.61
				c-4.68-3.4-9.22-7.45-12.53-12.1c-9.16-12.87-5.65-36.28,15.76-39.75c15.91-2.57,28.73,4.59,33.57,19.9
				c1.05,3.3,1.51,6.78,2.36,10.15c0.17,0.68,0.85,1.24,1.66,2.35c1.5-0.11,3.31-0.25,6.12-0.46c1.06-13.1,2.01-24.87,3.02-37.45
				c-10.69-1.71-20.67-3.68-30.75-4.8c-9.88-1.09-19.67,0.33-29.02,3.76c-29.9,10.97-38.34,46.94-15.81,69.09
				c6.87,6.76,15.26,12.11,23.3,17.61c5.79,3.96,12.34,6.85,18.25,10.67c7.33,4.73,13.84,10.41,16.32,19.15
				c5.28,18.59-4.55,34.3-24.26,35.1c-15.61,0.63-27.58-5.25-35.23-18.78c-3.22-5.7-5.92-11.68-8.89-17.59
				c-1.97,0-3.53-0.26-4.95,0.09c-0.99,0.24-1.78,1.3-2.94,2.21c2.56,12.44,5.11,24.81,7.68,37.27
				c21.36,7.98,42.25,10.32,63.09,3.02c15.77-5.53,26.04-16.92,29.15-33.68C1671.96,583.98,1666.22,570.33,1652.62,560.01z"/>
		</g>
	</g>
</g>
<g>
</g>
<g>
</g>
<g>
</g>
<g>
</g>
<g>
</g>
<g>
</g>
<g>
</g>
<g>
</g>
<g>
</g>
<g>
</g>
<g>
</g>
<g>
</g>
<g>
</g>
<g>
</g>
<g>
</g>
</svg>
